<svg width="568" height="102" viewBox="0 0 568 102" fill="none" xmlns="http://www.w3.org/2000/svg">
<path d="M0 68.0504C15.0832 68.0504 21.2243 52.5775 30.5543 46.301C47.1409 29.8086 62.0486 24.6102 83.6847 21.1772C103.018 18.1096 125.568 19.8131 143.678 27.5186C159.224 34.1335 176.465 48.3229 176.584 66.6037C176.655 77.3917 168.58 82.1375 159.003 84.9046C145.958 88.6741 131.569 88.0598 122.314 77.0682C108.821 61.0435 124.231 41.3407 138.61 32.3168C151.173 24.4321 165.198 18.7121 179.397 14.4982C192.378 10.646 205.704 8.29737 219.093 11.5084C229.48 13.9991 238.821 19.715 247.975 24.9869C262.766 33.5057 277.256 42.2145 292.69 49.5808C312.017 58.8047 332.104 66.9314 353.654 68.7738C362.451 69.526 371.475 69.5857 380.11 67.52C385.159 66.3119 389.669 63.6004 394.15 61.0822C399.718 57.953 405.515 54.7876 409.379 49.5567C419.723 35.5538 406.639 18.7067 392.841 13.5097C388.271 11.7888 383.562 11.1331 379.091 13.3891C374.005 15.9554 369.544 20.5412 367.209 25.7343C360.268 41.1712 367.987 59.5938 379.843 70.1964C393.109 82.0602 409.859 88.5289 427.372 91.1495C443.651 93.5855 459.914 90.475 475.483 85.7967C486.083 82.6112 496.644 79.3327 507.468 76.9477C522.095 73.7244 552.101 67.7223 567 68.0504" stroke="#D7DCDB" stroke-width="20"/>
<path d="M1 68H567" stroke="#D7DCDB" stroke-width="20"/>
</svg>
