<svg width="355" height="105" viewBox="0 0 355 105" fill="none" xmlns="http://www.w3.org/2000/svg">
<path d="M60.4692 102.948C61.7313 102.948 62.8992 102.373 63.6731 101.37L74.8334 86.9205C75.4291 86.1493 76.3283 85.7068 77.2996 85.7068L310.5 85.7066C333.461 85.7066 352.142 66.9315 352.142 43.8533C352.142 20.7752 333.461 2 310.5 2L43.6417 2.00011C20.6803 2.00011 2.00009 20.7753 2.00009 43.8534C2.00009 66.9316 20.6803 85.7068 43.6417 85.7068C44.6137 85.7068 45.5121 86.1493 46.1078 86.9205L57.2652 101.37C58.0391 102.373 59.207 102.948 60.4692 102.948Z" stroke="#3C4043" stroke-width="4" stroke-miterlimit="10" stroke-linecap="round"/>
<path d="M121.639 52.6055L116.347 32.8935H119.679L123.627 48.1535L127.911 32.8935H131.047L135.275 48.2095L139.251 32.8935H142.555L137.263 52.6055H133.567L129.479 37.8495L125.363 52.6055H121.639ZM150.539 53.0535C149.083 53.0535 147.805 52.7361 146.703 52.1015C145.621 51.4481 144.781 50.5521 144.183 49.4135C143.586 48.2561 143.287 46.9495 143.287 45.4935C143.287 44.0748 143.577 42.7961 144.155 41.6575C144.734 40.5001 145.565 39.5948 146.647 38.9415C147.749 38.2695 149.027 37.9335 150.483 37.9335C151.883 37.9335 153.078 38.2508 154.067 38.8855C155.075 39.5015 155.841 40.3788 156.363 41.5175C156.886 42.6375 157.147 43.9535 157.147 45.4655C157.147 45.7455 157.138 45.9975 157.119 46.2215H146.311C146.423 47.6401 146.853 48.7135 147.599 49.4415C148.346 50.1508 149.335 50.5055 150.567 50.5055C151.482 50.5055 152.238 50.3001 152.835 49.8895C153.433 49.4788 153.853 48.9001 154.095 48.1535H157.035C156.699 49.7401 155.943 50.9535 154.767 51.7935C153.591 52.6335 152.182 53.0535 150.539 53.0535ZM154.095 44.0655C154.021 42.9268 153.657 42.0588 153.003 41.4615C152.35 40.8455 151.51 40.5375 150.483 40.5375C149.401 40.5375 148.505 40.8455 147.795 41.4615C147.086 42.0588 146.629 42.9268 146.423 44.0655H154.095ZM160.202 52.6055V32.3055H163.31V52.6055H160.202ZM173.674 53.0255C172.237 53.0255 170.958 52.7081 169.838 52.0735C168.718 51.4201 167.85 50.5241 167.234 49.3855C166.637 48.2468 166.338 46.9588 166.338 45.5215C166.338 44.0841 166.637 42.7961 167.234 41.6575C167.85 40.5001 168.709 39.5948 169.81 38.9415C170.911 38.2695 172.19 37.9335 173.646 37.9335C174.841 37.9335 175.905 38.1668 176.838 38.6335C177.771 39.0815 178.527 39.7255 179.106 40.5655C179.703 41.3868 180.067 42.3481 180.198 43.4495H177.034C176.866 42.6095 176.493 41.9281 175.914 41.4055C175.335 40.8828 174.579 40.6215 173.646 40.6215C172.806 40.6215 172.078 40.8455 171.462 41.2935C170.846 41.7228 170.37 42.3108 170.034 43.0575C169.698 43.7855 169.53 44.5975 169.53 45.4935C169.53 46.4081 169.698 47.2295 170.034 47.9575C170.37 48.6668 170.846 49.2361 171.462 49.6655C172.078 50.0948 172.806 50.3095 173.646 50.3095C174.579 50.3095 175.335 50.0668 175.914 49.5815C176.511 49.0775 176.894 48.4335 177.062 47.6495H180.226C180.077 48.6761 179.722 49.6001 179.162 50.4215C178.602 51.2428 177.846 51.8868 176.894 52.3535C175.961 52.8015 174.887 53.0255 173.674 53.0255ZM189.753 53.0535C188.316 53.0535 187.037 52.7361 185.917 52.1015C184.816 51.4668 183.948 50.5801 183.313 49.4415C182.697 48.2841 182.389 46.9775 182.389 45.5215C182.389 44.0655 182.697 42.7681 183.313 41.6295C183.929 40.4721 184.797 39.5668 185.917 38.9135C187.037 38.2601 188.316 37.9335 189.753 37.9335C191.19 37.9335 192.497 38.2601 193.673 38.9135C194.849 39.5481 195.708 40.4441 196.249 41.6015C196.79 42.7401 197.061 44.0468 197.061 45.5215C197.061 46.9775 196.79 48.2748 196.249 49.4135C195.708 50.5521 194.84 51.4481 193.645 52.1015C192.469 52.7361 191.172 53.0535 189.753 53.0535ZM189.753 50.3935C190.574 50.3935 191.293 50.1975 191.909 49.8055C192.525 49.3948 193.001 48.8255 193.337 48.0975C193.692 47.3695 193.869 46.5108 193.869 45.5215C193.869 44.5135 193.701 43.6455 193.365 42.9175C193.029 42.1708 192.544 41.6015 191.909 41.2095C191.293 40.8175 190.574 40.6215 189.753 40.6215C188.913 40.6215 188.176 40.8268 187.541 41.2375C186.925 41.6295 186.44 42.1988 186.085 42.9455C185.749 43.6735 185.581 44.5321 185.581 45.5215C185.581 46.4921 185.749 47.3508 186.085 48.0975C186.44 48.8255 186.925 49.3948 187.541 49.8055C188.176 50.1975 188.913 50.3935 189.753 50.3935ZM200.348 52.6055V38.3815H203.484V40.2855C203.895 39.5575 204.436 38.9881 205.108 38.5775C205.78 38.1481 206.555 37.9335 207.432 37.9335C208.496 37.9335 209.383 38.1668 210.092 38.6335C210.82 39.0815 211.343 39.7441 211.66 40.6215C212.089 39.7815 212.668 39.1281 213.396 38.6615C214.143 38.1761 215.011 37.9335 216 37.9335C217.437 37.9335 218.548 38.3441 219.332 39.1655C220.116 39.9868 220.508 41.1815 220.508 42.7495V52.6055H217.372V43.3655C217.372 42.4508 217.167 41.7695 216.756 41.3215C216.364 40.8548 215.767 40.6215 214.964 40.6215C214.367 40.6215 213.844 40.7708 213.396 41.0695C212.967 41.3495 212.621 41.7788 212.36 42.3575C212.117 42.9361 211.996 43.6455 211.996 44.4855V52.6055H208.86V43.3655C208.86 42.4695 208.655 41.7881 208.244 41.3215C207.852 40.8548 207.255 40.6215 206.452 40.6215C205.873 40.6215 205.36 40.7708 204.912 41.0695C204.464 41.3495 204.109 41.7788 203.848 42.3575C203.605 42.9175 203.484 43.6081 203.484 44.4295V52.6055H200.348ZM230.766 53.0535C229.31 53.0535 228.031 52.7361 226.93 52.1015C225.847 51.4481 225.007 50.5521 224.41 49.4135C223.813 48.2561 223.514 46.9495 223.514 45.4935C223.514 44.0748 223.803 42.7961 224.382 41.6575C224.961 40.5001 225.791 39.5948 226.874 38.9415C227.975 38.2695 229.254 37.9335 230.71 37.9335C232.11 37.9335 233.305 38.2508 234.294 38.8855C235.302 39.5015 236.067 40.3788 236.59 41.5175C237.113 42.6375 237.374 43.9535 237.374 45.4655C237.374 45.7455 237.365 45.9975 237.346 46.2215H226.538C226.65 47.6401 227.079 48.7135 227.826 49.4415C228.573 50.1508 229.562 50.5055 230.794 50.5055C231.709 50.5055 232.465 50.3001 233.062 49.8895C233.659 49.4788 234.079 48.9001 234.322 48.1535H237.262C236.926 49.7401 236.17 50.9535 234.994 51.7935C233.818 52.6335 232.409 53.0535 230.766 53.0535ZM234.322 44.0655C234.247 42.9268 233.883 42.0588 233.23 41.4615C232.577 40.8455 231.737 40.5375 230.71 40.5375C229.627 40.5375 228.731 40.8455 228.022 41.4615C227.313 42.0588 226.855 42.9268 226.65 44.0655H234.322ZM241.518 47.0895V32.8935H244.71V47.0895H241.518ZM243.17 52.8295C242.573 52.8295 242.069 52.6335 241.658 52.2415C241.266 51.8308 241.07 51.3361 241.07 50.7575C241.07 50.2161 241.266 49.7495 241.658 49.3575C242.069 48.9468 242.573 48.7415 243.17 48.7415C243.711 48.7415 244.178 48.9468 244.57 49.3575C244.962 49.7495 245.158 50.2161 245.158 50.7575C245.158 51.3361 244.962 51.8308 244.57 52.2415C244.178 52.6335 243.711 52.8295 243.17 52.8295Z" fill="#3D4043"/>
</svg>
