<svg width="355" height="106" viewBox="0 0 355 106" fill="none" xmlns="http://www.w3.org/2000/svg">
<path d="M60.4692 103.342C61.7313 103.342 62.8992 102.767 63.6731 101.765L74.8334 87.3151C75.4291 86.5439 76.3283 86.1013 77.2996 86.1013L310.5 86.1011C333.461 86.1011 352.142 67.326 352.142 44.2478C352.142 21.1697 333.461 2.39453 310.5 2.39453L43.6417 2.39464C20.6803 2.39464 2.00009 21.1698 2.00009 44.2479C2.00009 67.3261 20.6803 86.1013 43.6417 86.1013C44.6137 86.1013 45.5121 86.5439 46.1078 87.3151L57.2652 101.765C58.0391 102.767 59.207 103.342 60.4692 103.342Z" stroke="#3C4043" stroke-width="4" stroke-miterlimit="10" stroke-linecap="round"/>
<path d="M38.66 53.448C36.9987 53.448 35.552 53.168 34.32 52.608C33.088 52.048 32.1267 51.2453 31.436 50.2C30.7453 49.1547 30.3627 47.9227 30.288 46.504H33.788C33.8813 47.3813 34.124 48.1187 34.516 48.716C34.908 49.3133 35.4493 49.7707 36.14 50.088C36.8307 50.3867 37.6707 50.536 38.66 50.536C39.948 50.536 40.9933 50.2747 41.796 49.752C42.6173 49.2107 43.028 48.4453 43.028 47.456C43.028 46.8587 42.8507 46.3827 42.496 46.028C42.16 45.6547 41.6373 45.3467 40.928 45.104C40.2187 44.8613 39.192 44.6093 37.848 44.348C36.3173 44.0307 35.0573 43.6573 34.068 43.228C33.0973 42.78 32.3413 42.192 31.8 41.464C31.2587 40.736 30.988 39.7933 30.988 38.636C30.988 37.4227 31.3053 36.3867 31.94 35.528C32.5747 34.6507 33.4613 33.988 34.6 33.54C35.7387 33.0733 37.036 32.84 38.492 32.84C39.9853 32.84 41.2827 33.1013 42.384 33.624C43.4853 34.1467 44.344 34.8747 44.96 35.808C45.576 36.7413 45.9213 37.8147 45.996 39.028H42.58C42.468 37.964 42.048 37.1427 41.32 36.564C40.592 35.9667 39.6307 35.668 38.436 35.668C37.2227 35.668 36.252 35.92 35.524 36.424C34.796 36.9093 34.432 37.5627 34.432 38.384C34.432 38.9067 34.5907 39.336 34.908 39.672C35.244 40.008 35.7387 40.288 36.392 40.512C37.0453 40.736 37.96 40.9693 39.136 41.212C40.7973 41.548 42.1413 41.94 43.168 42.388C44.2133 42.836 45.0253 43.452 45.604 44.236C46.2013 45.0013 46.5 46.0093 46.5 47.26C46.5 48.5107 46.164 49.6027 45.492 50.536C44.82 51.4693 43.8867 52.188 42.692 52.692C41.516 53.196 40.172 53.448 38.66 53.448ZM56.3245 53.42C54.8872 53.42 53.6085 53.1027 52.4885 52.468C51.3685 51.8147 50.5005 50.9187 49.8845 49.78C49.2872 48.6413 48.9885 47.3533 48.9885 45.916C48.9885 44.4787 49.2872 43.1907 49.8845 42.052C50.5005 40.8947 51.3592 39.9893 52.4605 39.336C53.5618 38.664 54.8405 38.328 56.2965 38.328C57.4912 38.328 58.5552 38.5613 59.4885 39.028C60.4218 39.476 61.1778 40.12 61.7565 40.96C62.3538 41.7813 62.7178 42.7427 62.8485 43.844H59.6845C59.5165 43.004 59.1432 42.3227 58.5645 41.8C57.9858 41.2773 57.2298 41.016 56.2965 41.016C55.4565 41.016 54.7285 41.24 54.1125 41.688C53.4965 42.1173 53.0205 42.7053 52.6845 43.452C52.3485 44.18 52.1805 44.992 52.1805 45.888C52.1805 46.8027 52.3485 47.624 52.6845 48.352C53.0205 49.0613 53.4965 49.6307 54.1125 50.06C54.7285 50.4893 55.4565 50.704 56.2965 50.704C57.2298 50.704 57.9858 50.4613 58.5645 49.976C59.1618 49.472 59.5445 48.828 59.7125 48.044H62.8765C62.7272 49.0707 62.3725 49.9947 61.8125 50.816C61.2525 51.6373 60.4965 52.2813 59.5445 52.748C58.6112 53.196 57.5378 53.42 56.3245 53.42ZM65.8813 53V38.776H69.0173V41.296C69.3719 40.456 69.8666 39.8027 70.5013 39.336C71.1546 38.8693 71.9293 38.636 72.8253 38.636C73.0119 38.636 73.1706 38.6453 73.3013 38.664C73.4506 38.6827 73.5999 38.7107 73.7493 38.748V41.688C73.4693 41.632 73.1613 41.604 72.8253 41.604C71.6679 41.604 70.7439 42.0053 70.0533 42.808C69.3626 43.592 69.0173 44.6653 69.0173 46.028V53H65.8813ZM82.7666 53.448C81.3292 53.448 80.0506 53.1307 78.9306 52.496C77.8292 51.8613 76.9612 50.9747 76.3266 49.836C75.7106 48.6787 75.4026 47.372 75.4026 45.916C75.4026 44.46 75.7106 43.1627 76.3266 42.024C76.9426 40.8667 77.8106 39.9613 78.9306 39.308C80.0506 38.6547 81.3292 38.328 82.7666 38.328C84.2039 38.328 85.5106 38.6547 86.6866 39.308C87.8626 39.9427 88.7212 40.8387 89.2626 41.996C89.8039 43.1347 90.0746 44.4413 90.0746 45.916C90.0746 47.372 89.8039 48.6693 89.2626 49.808C88.7212 50.9467 87.8532 51.8427 86.6586 52.496C85.4826 53.1307 84.1852 53.448 82.7666 53.448ZM82.7666 50.788C83.5879 50.788 84.3066 50.592 84.9226 50.2C85.5386 49.7893 86.0146 49.22 86.3506 48.492C86.7052 47.764 86.8826 46.9053 86.8826 45.916C86.8826 44.908 86.7146 44.04 86.3786 43.312C86.0426 42.5653 85.5572 41.996 84.9226 41.604C84.3066 41.212 83.5879 41.016 82.7666 41.016C81.9266 41.016 81.1892 41.2213 80.5546 41.632C79.9386 42.024 79.4532 42.5933 79.0986 43.34C78.7626 44.068 78.5946 44.9267 78.5946 45.916C78.5946 46.8867 78.7626 47.7453 79.0986 48.492C79.4532 49.22 79.9386 49.7893 80.5546 50.2C81.1892 50.592 81.9266 50.788 82.7666 50.788ZM96.3857 53.14C94.2017 53.14 93.1097 51.9453 93.1097 49.556V32.7H96.2177V49.108C96.2177 49.5747 96.2924 49.92 96.4417 50.144C96.5911 50.368 96.8524 50.48 97.2257 50.48C97.4311 50.48 97.6644 50.4427 97.9257 50.368V52.916C97.4591 53.0653 96.9457 53.14 96.3857 53.14ZM103.44 53.14C101.256 53.14 100.164 51.9453 100.164 49.556V32.7H103.272V49.108C103.272 49.5747 103.347 49.92 103.496 50.144C103.646 50.368 103.907 50.48 104.28 50.48C104.486 50.48 104.719 50.4427 104.98 50.368V52.916C104.514 53.0653 104 53.14 103.44 53.14ZM119.041 53.308C117.566 53.308 116.502 52.9627 115.849 52.272C115.196 51.5813 114.869 50.6013 114.869 49.332V41.352H112.629V38.776H114.869V35.108H118.005V38.776H121.001V41.352H118.005V49.164C118.005 49.6867 118.154 50.0693 118.453 50.312C118.752 50.536 119.2 50.648 119.797 50.648C120.077 50.648 120.469 50.6107 120.973 50.536V53.028C120.301 53.2147 119.657 53.308 119.041 53.308ZM130.208 53.448C128.771 53.448 127.492 53.1307 126.372 52.496C125.271 51.8613 124.403 50.9747 123.768 49.836C123.152 48.6787 122.844 47.372 122.844 45.916C122.844 44.46 123.152 43.1627 123.768 42.024C124.384 40.8667 125.252 39.9613 126.372 39.308C127.492 38.6547 128.771 38.328 130.208 38.328C131.645 38.328 132.952 38.6547 134.128 39.308C135.304 39.9427 136.163 40.8387 136.704 41.996C137.245 43.1347 137.516 44.4413 137.516 45.916C137.516 47.372 137.245 48.6693 136.704 49.808C136.163 50.9467 135.295 51.8427 134.1 52.496C132.924 53.1307 131.627 53.448 130.208 53.448ZM130.208 50.788C131.029 50.788 131.748 50.592 132.364 50.2C132.98 49.7893 133.456 49.22 133.792 48.492C134.147 47.764 134.324 46.9053 134.324 45.916C134.324 44.908 134.156 44.04 133.82 43.312C133.484 42.5653 132.999 41.996 132.364 41.604C131.748 41.212 131.029 41.016 130.208 41.016C129.368 41.016 128.631 41.2213 127.996 41.632C127.38 42.024 126.895 42.5933 126.54 43.34C126.204 44.068 126.036 44.9267 126.036 45.916C126.036 46.8867 126.204 47.7453 126.54 48.492C126.895 49.22 127.38 49.7893 127.996 50.2C128.631 50.592 129.368 50.788 130.208 50.788ZM154.844 53.448C153.182 53.448 151.736 53.168 150.504 52.608C149.272 52.048 148.31 51.2453 147.62 50.2C146.929 49.1547 146.546 47.9227 146.472 46.504H149.972C150.065 47.3813 150.308 48.1187 150.7 48.716C151.092 49.3133 151.633 49.7707 152.324 50.088C153.014 50.3867 153.854 50.536 154.844 50.536C156.132 50.536 157.177 50.2747 157.98 49.752C158.801 49.2107 159.212 48.4453 159.212 47.456C159.212 46.8587 159.034 46.3827 158.68 46.028C158.344 45.6547 157.821 45.3467 157.112 45.104C156.402 44.8613 155.376 44.6093 154.032 44.348C152.501 44.0307 151.241 43.6573 150.252 43.228C149.281 42.78 148.525 42.192 147.984 41.464C147.442 40.736 147.172 39.7933 147.172 38.636C147.172 37.4227 147.489 36.3867 148.124 35.528C148.758 34.6507 149.645 33.988 150.784 33.54C151.922 33.0733 153.22 32.84 154.676 32.84C156.169 32.84 157.466 33.1013 158.568 33.624C159.669 34.1467 160.528 34.8747 161.144 35.808C161.76 36.7413 162.105 37.8147 162.18 39.028H158.764C158.652 37.964 158.232 37.1427 157.504 36.564C156.776 35.9667 155.814 35.668 154.62 35.668C153.406 35.668 152.436 35.92 151.708 36.424C150.98 36.9093 150.616 37.5627 150.616 38.384C150.616 38.9067 150.774 39.336 151.092 39.672C151.428 40.008 151.922 40.288 152.576 40.512C153.229 40.736 154.144 40.9693 155.32 41.212C156.981 41.548 158.325 41.94 159.352 42.388C160.397 42.836 161.209 43.452 161.788 44.236C162.385 45.0013 162.684 46.0093 162.684 47.26C162.684 48.5107 162.348 49.6027 161.676 50.536C161.004 51.4693 160.07 52.188 158.876 52.692C157.7 53.196 156.356 53.448 154.844 53.448ZM171.158 53.308C169.684 53.308 168.62 52.9627 167.966 52.272C167.313 51.5813 166.986 50.6013 166.986 49.332V41.352H164.746V38.776H166.986V35.108H170.122V38.776H173.118V41.352H170.122V49.164C170.122 49.6867 170.272 50.0693 170.57 50.312C170.869 50.536 171.317 50.648 171.914 50.648C172.194 50.648 172.586 50.6107 173.09 50.536V53.028C172.418 53.2147 171.774 53.308 171.158 53.308ZM190.557 50.452C190.762 50.452 191.005 50.424 191.285 50.368V52.888C191.117 52.944 190.893 53 190.613 53.056C190.333 53.112 190.034 53.14 189.717 53.14C188.597 53.14 187.766 52.8227 187.225 52.188C186.702 51.5533 186.441 50.648 186.441 49.472V38.776H189.493V48.996C189.493 49.4813 189.577 49.8453 189.745 50.088C189.913 50.3307 190.184 50.452 190.557 50.452ZM181.625 53.448C180.318 53.448 179.161 53.1307 178.153 52.496C177.145 51.8427 176.361 50.9467 175.801 49.808C175.241 48.6693 174.961 47.372 174.961 45.916C174.961 44.46 175.241 43.1627 175.801 42.024C176.361 40.8667 177.145 39.9613 178.153 39.308C179.161 38.6547 180.309 38.328 181.597 38.328C182.848 38.328 183.958 38.6547 184.929 39.308C185.9 39.9613 186.656 40.8573 187.197 41.996C187.738 43.1347 188.009 44.4413 188.009 45.916C188.009 47.372 187.738 48.6693 187.197 49.808C186.656 50.9467 185.9 51.8427 184.929 52.496C183.958 53.1307 182.857 53.448 181.625 53.448ZM182.297 50.732C183.118 50.732 183.837 50.536 184.453 50.144C185.088 49.752 185.573 49.192 185.909 48.464C186.264 47.736 186.441 46.8867 186.441 45.916C186.441 44.4227 186.068 43.2373 185.321 42.36C184.574 41.4827 183.566 41.044 182.297 41.044C181.046 41.044 180.038 41.4827 179.273 42.36C178.526 43.2373 178.153 44.4227 178.153 45.916C178.153 46.8867 178.321 47.736 178.657 48.464C179.012 49.192 179.497 49.752 180.113 50.144C180.748 50.536 181.476 50.732 182.297 50.732ZM193.741 53V38.776H196.877V41.296C197.231 40.456 197.726 39.8027 198.361 39.336C199.014 38.8693 199.789 38.636 200.685 38.636C200.871 38.636 201.03 38.6453 201.161 38.664C201.31 38.6827 201.459 38.7107 201.609 38.748V41.688C201.329 41.632 201.021 41.604 200.685 41.604C199.527 41.604 198.603 42.0053 197.913 42.808C197.222 43.592 196.877 44.6653 196.877 46.028V53H193.741ZM209.549 53.308C208.074 53.308 207.01 52.9627 206.357 52.272C205.703 51.5813 205.377 50.6013 205.377 49.332V41.352H203.137V38.776H205.377V35.108H208.513V38.776H211.509V41.352H208.513V49.164C208.513 49.6867 208.662 50.0693 208.961 50.312C209.259 50.536 209.707 50.648 210.305 50.648C210.585 50.648 210.977 50.6107 211.481 50.536V53.028C210.809 53.2147 210.165 53.308 209.549 53.308ZM226.484 53.448C224.412 53.448 222.807 52.916 221.668 51.852C220.548 50.788 219.988 49.2667 219.988 47.288V46.672H223.18V47.288C223.18 48.3707 223.46 49.192 224.02 49.752C224.599 50.2933 225.42 50.564 226.484 50.564C227.548 50.564 228.37 50.2933 228.948 49.752C229.527 49.192 229.816 48.38 229.816 47.316V33.288H233.036V47.316C233.036 49.276 232.467 50.788 231.328 51.852C230.19 52.916 228.575 53.448 226.484 53.448ZM243.849 53.448C242.411 53.448 241.133 53.1307 240.013 52.496C238.911 51.8613 238.043 50.9747 237.409 49.836C236.793 48.6787 236.485 47.372 236.485 45.916C236.485 44.46 236.793 43.1627 237.409 42.024C238.025 40.8667 238.893 39.9613 240.013 39.308C241.133 38.6547 242.411 38.328 243.849 38.328C245.286 38.328 246.593 38.6547 247.769 39.308C248.945 39.9427 249.803 40.8387 250.345 41.996C250.886 43.1347 251.157 44.4413 251.157 45.916C251.157 47.372 250.886 48.6693 250.345 49.808C249.803 50.9467 248.935 51.8427 247.741 52.496C246.565 53.1307 245.267 53.448 243.849 53.448ZM243.849 50.788C244.67 50.788 245.389 50.592 246.005 50.2C246.621 49.7893 247.097 49.22 247.433 48.492C247.787 47.764 247.965 46.9053 247.965 45.916C247.965 44.908 247.797 44.04 247.461 43.312C247.125 42.5653 246.639 41.996 246.005 41.604C245.389 41.212 244.67 41.016 243.849 41.016C243.009 41.016 242.271 41.2213 241.637 41.632C241.021 42.024 240.535 42.5933 240.181 43.34C239.845 44.068 239.677 44.9267 239.677 45.916C239.677 46.8867 239.845 47.7453 240.181 48.492C240.535 49.22 241.021 49.7893 241.637 50.2C242.271 50.592 243.009 50.788 243.849 50.788ZM259.344 53.448C257.72 53.448 256.45 52.9347 255.536 51.908C254.621 50.8627 254.164 49.4253 254.164 47.596V38.776H257.3V47.344C257.3 48.464 257.552 49.3227 258.056 49.92C258.578 50.4987 259.334 50.788 260.324 50.788C261.033 50.788 261.658 50.6013 262.2 50.228C262.76 49.8547 263.189 49.332 263.488 48.66C263.786 47.988 263.936 47.2133 263.936 46.336V38.776H267.072V53H263.936V50.9C263.469 51.7027 262.844 52.328 262.06 52.776C261.294 53.224 260.389 53.448 259.344 53.448ZM271.26 53V38.776H274.396V41.296C274.751 40.456 275.245 39.8027 275.88 39.336C276.533 38.8693 277.308 38.636 278.204 38.636C278.391 38.636 278.549 38.6453 278.68 38.664C278.829 38.6827 278.979 38.7107 279.128 38.748V41.688C278.848 41.632 278.54 41.604 278.204 41.604C277.047 41.604 276.123 42.0053 275.432 42.808C274.741 43.592 274.396 44.6653 274.396 46.028V53H271.26ZM281.705 53V38.776H284.841V40.904C285.308 40.1013 285.924 39.476 286.689 39.028C287.473 38.5613 288.388 38.328 289.433 38.328C291.057 38.328 292.327 38.8507 293.241 39.896C294.156 40.9413 294.613 42.3693 294.613 44.18V53H291.477V44.432C291.477 43.312 291.216 42.4627 290.693 41.884C290.189 41.3053 289.443 41.016 288.453 41.016C287.744 41.016 287.109 41.2027 286.549 41.576C286.008 41.9307 285.588 42.444 285.289 43.116C284.991 43.788 284.841 44.5627 284.841 45.44V53H281.705ZM304.85 53.448C303.394 53.448 302.115 53.1307 301.014 52.496C299.931 51.8427 299.091 50.9467 298.494 49.808C297.897 48.6507 297.598 47.344 297.598 45.888C297.598 44.4693 297.887 43.1907 298.466 42.052C299.045 40.8947 299.875 39.9893 300.958 39.336C302.059 38.664 303.338 38.328 304.794 38.328C306.194 38.328 307.389 38.6453 308.378 39.28C309.386 39.896 310.151 40.7733 310.674 41.912C311.197 43.032 311.458 44.348 311.458 45.86C311.458 46.14 311.449 46.392 311.43 46.616H300.622C300.734 48.0347 301.163 49.108 301.91 49.836C302.657 50.5453 303.646 50.9 304.878 50.9C305.793 50.9 306.549 50.6947 307.146 50.284C307.743 49.8733 308.163 49.2947 308.406 48.548H311.346C311.01 50.1347 310.254 51.348 309.078 52.188C307.902 53.028 306.493 53.448 304.85 53.448ZM308.406 44.46C308.331 43.3213 307.967 42.4533 307.314 41.856C306.661 41.24 305.821 40.932 304.794 40.932C303.711 40.932 302.815 41.24 302.106 41.856C301.397 42.4533 300.939 43.3213 300.734 44.46H308.406ZM314.633 58.32V55.548H315.781C316.49 55.548 317.031 55.4267 317.405 55.184C317.778 54.9413 318.077 54.54 318.301 53.98L318.693 52.972L312.869 38.776H316.089L320.233 49.304L324.377 38.776H327.569L321.045 54.736C320.522 56.024 319.841 56.9387 319.001 57.48C318.179 58.04 317.106 58.32 315.781 58.32H314.633Z" fill="#3D4043"/>
</svg>
