<svg xmlns="http://www.w3.org/2000/svg" viewBox="0 0 77.13 95.32"><path d="M76.07,37.47a42.46,42.46,0,0,1-4.58,5.75,58.36,58.36,0,0,1-11.28,9.05,1.57,1.57,0,0,0-.73,1.31V95.32H77.12V37.78A.57.57,0,0,0,76.07,37.47Z" fill="#fff"/><path d="M1.05,57.85A41.1,41.1,0,0,1,5.63,52.1a58.06,58.06,0,0,1,11.28-9.05,1.56,1.56,0,0,0,.72-1.31V0H0V57.54A.57.57,0,0,0,1.05,57.85Z" fill="#fff"/><path d="M59.49,15.82a15.61,15.61,0,0,1-4.61,11.66c-3.75,4-10.19,7.89-19.66,12h0C23.11,44.74,15,49.84,9.45,55.67a34.3,34.3,0,0,0-7.13,11A34.76,34.76,0,0,0,0,79.46V95.28H17.63V79.46A15.58,15.58,0,0,1,22.25,67.8c3.75-4,10.18-7.89,19.8-12.09v0c12-5.16,20.1-10.29,25.62-16.12a34.3,34.3,0,0,0,7.13-11,34.76,34.76,0,0,0,2.32-12.8V0H59.49Z" fill="#fff"/></svg>