<svg xmlns="http://www.w3.org/2000/svg" viewBox="0 0 548.97 127.41"><rect x="94.46" y="30.77" width="17.28" height="68.84" fill="#fff"/><path d="M103.1,0a10.27,10.27,0,0,0-7.62,3.24,10.77,10.77,0,0,0-3.18,7.83,10.6,10.6,0,0,0,3.18,7.69A10.27,10.27,0,0,0,103.1,22a10.67,10.67,0,0,0,7.83-3.24,10.5,10.5,0,0,0,3.24-7.69,10.67,10.67,0,0,0-3.24-7.83A10.67,10.67,0,0,0,103.1,0Z" fill="#fff"/><path d="M177.64,39a29.31,29.31,0,0,0-9.71-7.63,28,28,0,0,0-12.42-2.77A30.49,30.49,0,0,0,139,33.14,30.91,30.91,0,0,0,127.7,45.62a39.64,39.64,0,0,0-4,18.22,38.91,38.91,0,0,0,4,18,30.19,30.19,0,0,0,27.81,16.8,28.22,28.22,0,0,0,22.13-10.25v8.9a18.31,18.31,0,0,1-2.09,9.12,13.09,13.09,0,0,1-5.94,5.53,20.79,20.79,0,0,1-9,1.82,19.54,19.54,0,0,1-10.46-2.63,12.24,12.24,0,0,1-5.47-8.3H127q1.08,11.75,10.32,18.15t22.75,6.41a41.12,41.12,0,0,0,18.08-3.78,28.43,28.43,0,0,0,12.15-10.79,30.28,30.28,0,0,0,4.32-16.2V30.77h-17Zm-2.22,35.83a16.82,16.82,0,0,1-6.35,7.22,17.86,17.86,0,0,1-9.65,2.57,17.59,17.59,0,0,1-9.51-2.57,17.14,17.14,0,0,1-6.41-7.22,24.47,24.47,0,0,1-2.3-11q0-9.72,4.93-15.39t13.43-5.66q8.37,0,13.22,5.66t4.86,15.39A25.31,25.31,0,0,1,175.42,74.84Z" fill="#fff"/><path d="M247.75,28.61a24.72,24.72,0,0,0-12.55,3.11,24.12,24.12,0,0,0-8.78,8.77V1.75h-17V99.61h17V62.76a24.56,24.56,0,0,1,2-10.26A16.34,16.34,0,0,1,234,45.62a14.12,14.12,0,0,1,8.24-2.43q6.6,0,10,3.92t3.38,11.2v41.3h17.14V57.23q0-13.36-6.61-21T247.75,28.61Z" fill="#fff"/><path d="M304.26,84.09a10.24,10.24,0,0,1-1.08-5.27V1.75h-17V81.52q0,18.9,17.28,18.9a22.31,22.31,0,0,0,7.82-1.35V85.44a14.44,14.44,0,0,1-3.23.4A4.06,4.06,0,0,1,304.26,84.09Z" fill="#fff"/><path d="M389,83.88a9.91,9.91,0,0,1-1.21-5.46V30.77H371v8.46a29.76,29.76,0,0,0-6.34-5.89,27.23,27.23,0,0,0-15.79-4.73,29.84,29.84,0,0,0-16.6,4.73,31.72,31.72,0,0,0-11.34,13,42.75,42.75,0,0,0-4,19,42.25,42.25,0,0,0,4,18.89A31.29,31.29,0,0,0,332.3,97.11a30.12,30.12,0,0,0,16.6,4.66,27.47,27.47,0,0,0,15.79-4.66,29.26,29.26,0,0,0,7.48-7.33,15.8,15.8,0,0,0,3.11,5.78q4.26,4.86,12.89,4.86a21.49,21.49,0,0,0,4.66-.47,22.4,22.4,0,0,0,3.44-1V85.3a16.29,16.29,0,0,1-3.37.41A4.36,4.36,0,0,1,389,83.88Zm-26.52.54a19,19,0,0,1-19.3,0,17,17,0,0,1-6.34-7.55,27.73,27.73,0,0,1-2.23-11.54q0-10.12,4.93-16t13.29-5.87q8.37,0,13.3,5.87t4.92,16a27.89,27.89,0,0,1-2.22,11.54A17,17,0,0,1,362.46,84.42Z" fill="#fff"/><path d="M445.1,28.61a24.7,24.7,0,0,0-12.55,3.11,24.12,24.12,0,0,0-8.78,8.77V30.77H406.5V99.61h17.27V62.76a25.37,25.37,0,0,1,2-10.26,15.69,15.69,0,0,1,5.53-6.88,14.21,14.21,0,0,1,8.17-2.43q6.61,0,10,3.92t3.37,11.2v41.3h17.28V57.23q0-13.36-6.61-21T445.1,28.61Z" fill="#fff"/><path d="M532,1.75v37.8a29.19,29.19,0,0,0-9.72-8,26.79,26.79,0,0,0-12.41-2.91,29.88,29.88,0,0,0-16.61,4.73,31.77,31.77,0,0,0-11.33,13,42.75,42.75,0,0,0-4.05,19,42.25,42.25,0,0,0,4.05,18.89,31.34,31.34,0,0,0,11.33,12.89,30.15,30.15,0,0,0,16.61,4.66,27.37,27.37,0,0,0,12.41-2.84A28.51,28.51,0,0,0,532,91v8.64h17V1.75Zm-2.23,75.12a17,17,0,0,1-6.34,7.55,19,19,0,0,1-19.3,0,16.92,16.92,0,0,1-6.34-7.55,27.73,27.73,0,0,1-2.23-11.54q0-10.12,4.93-16t13.29-5.87q8.37,0,13.29,5.87t4.93,16A27.73,27.73,0,0,1,529.73,76.87Z" fill="#fff"/><path d="M78.09,40.22a43.27,43.27,0,0,1-4.7,5.9,59.89,59.89,0,0,1-11.58,9.3,1.59,1.59,0,0,0-.74,1.34V99.61h18.1V40.54A.59.59,0,0,0,78.09,40.22Z" fill="#fff"/><path d="M1.08,61.14a43.27,43.27,0,0,1,4.7-5.9A59.49,59.49,0,0,1,17.36,46a1.61,1.61,0,0,0,.74-1.35V1.75H0V60.82A.59.59,0,0,0,1.08,61.14Z" fill="#fff"/><path d="M61.07,18a16,16,0,0,1-4.73,12C52.49,34,45.88,38.07,36.16,42.28h0C23.73,47.68,15.37,52.92,9.7,58.9A35.08,35.08,0,0,0,2.38,70.19,35.67,35.67,0,0,0,0,83.32V99.57H18.1V83.32a16,16,0,0,1,4.74-12C26.69,67.29,33.3,63.26,43.17,59v0c12.27-5.3,20.63-10.56,26.3-16.55A35.25,35.25,0,0,0,76.8,31.13,35.64,35.64,0,0,0,79.18,18V1.75H61.07Z" fill="#fff"/></svg>